# xmcd
#
# Track frame offsets: 
#        150
#        31093
#        64768
#        83416
#        105394
#        133773
#        166755
#        199119
#        228338
#        252504
#
# Disc length: 3787 seconds
#
# Revision: 1
# Processed by: cddbd v1.5.2PL0 Copyright (c) Steve Scherf et al.
# Submitted via: ExactAudioCopyFreeDBPlugin 1.0
#
DISCID=750ec90a
DTITLE=Fred Nardin Trio - Opening
DYEAR=2017
DGENRE=Jazz
TTITLE0=The Giant
TTITLE1=Parisian Melodies
TTITLE2=New Waltz
TTITLE3=I Mean You
TTITLE4=Don't Forget The Blues
TTITLE5=Hope
TTITLE6=Travel To
TTITLE7=You'd Be So Nice To Come Home To
TTITLE8=Lost In Your Eyes
TTITLE9=Green Chimneys
EXTD=YEAR: 2017
EXTT0=
EXTT1=
EXTT2=
EXTT3=
EXTT4=
EXTT5=
EXTT6=
EXTT7=
EXTT8=
EXTT9=
PLAYORDER=
